<svg xmlns="http://www.w3.org/2000/svg" xmlns:xlink="http://www.w3.org/1999/xlink" xmlns:svgjs="http://svgjs.com/svgjs" width="512" height="512" x="0" y="0" viewBox="0 0 64 64" style="enable-background:new 0 0 512 512" xml:space="preserve" class=""><g><path xmlns="http://www.w3.org/2000/svg" d="m60 35h-11v-11a3 3 0 0 0 -3-3h-8a3 3 0 0 0 -3 3v11h-11a3 3 0 0 0 -3 3v8a3 3 0 0 0 3 3h11v11a3 3 0 0 0 3 3h8a3 3 0 0 0 3-3v-11h11a3 3 0 0 0 3-3v-8a3 3 0 0 0 -3-3z" fill="#f44336" data-original="#c4a2fc" style=""></path><g xmlns="http://www.w3.org/2000/svg" fill="#151a6a"><path d="m22 1a21 21 0 1 0 21 21 21.023 21.023 0 0 0 -21-21zm-12 35.715v-2.715a5.006 5.006 0 0 1 5-5h14a5.006 5.006 0 0 1 5 5v2.715a18.945 18.945 0 0 1 -24 0zm26-1.915v-.8a7.008 7.008 0 0 0 -7-7h-14a7.008 7.008 0 0 0 -7 7v.8a19 19 0 1 1 28 0z" fill="#ffffff" data-original="#151a6a" style="" class=""></path><path d="m22 6a8.009 8.009 0 0 0 -8 8v2a8 8 0 0 0 16 0v-2a8.009 8.009 0 0 0 -8-8zm6 10a6 6 0 0 1 -12 0v-2a6 6 0 0 1 12 0z" fill="#ffffff" data-original="#151a6a" style="" class=""></path><path d="m25 15a1 1 0 0 0 -1 1 2 2 0 0 1 -4 0 1 1 0 0 0 -2 0 4 4 0 0 0 8 0 1 1 0 0 0 -1-1z" fill="#ffffff" data-original="#151a6a" style="" class=""></path></g></g></svg>