<svg id="Capa_1" enable-background="new 0 0 512 512" height="512" viewBox="0 0 512 512" width="512" xmlns="http://www.w3.org/2000/svg"><g><path d="m387.75 248.718v-31.368c0-51.335-41.765-93.1-93.1-93.1h-31.15v-91.52c0-18.047-14.683-32.73-32.73-32.73h-198.04c-18.047 0-32.73 14.683-32.73 32.73v34.47c0 4.142 3.358 7.5 7.5 7.5s7.5-3.358 7.5-7.5v-34.47c0-9.776 7.954-17.73 17.73-17.73h198.04c9.776 0 17.73 7.954 17.73 17.73v91.521h-31.15c-51.335 0-93.1 41.764-93.1 93.1v31.15h-91.52c-9.776 0-17.73-7.954-17.73-17.73v-133.571c0-4.142-3.358-7.5-7.5-7.5s-7.5 3.358-7.5 7.5v133.57c0 18.047 14.683 32.73 32.73 32.73h91.52v31.15c0 51.335 41.765 93.1 93.1 93.1h31.383c1.429 25.667 10.165 49.996 25.527 70.761 2.463 3.33 7.16 4.032 10.49 1.568s4.032-7.16 1.568-10.49c-14.929-20.177-22.819-44.154-22.819-69.339 0-64.376 52.374-116.75 116.75-116.75s116.751 52.374 116.751 116.75-52.374 116.75-116.75 116.75c-27.262 0-53.786-9.593-74.688-27.012-3.181-2.651-7.91-2.222-10.563.96-2.651 3.182-2.222 7.911.96 10.563 23.592 19.661 53.527 30.489 84.291 30.489 72.647 0 131.75-59.103 131.75-131.75 0-70.129-55.079-127.63-124.25-131.532zm-139.032 124.032h-31.368c-43.064 0-78.1-35.035-78.1-78.1v-77.3c0-43.064 35.036-78.1 78.1-78.1h77.3c43.064 0 78.1 35.035 78.1 78.1v31.368c-66.688 3.761-120.27 57.345-124.032 124.032z"/></g></svg>