<svg height="512pt" viewBox="0 0 512 512" width="512pt" xmlns="http://www.w3.org/2000/svg"><path d="m169.242188 154.507812c1.652343 0 3.320312-.539062 4.714843-1.648437 21.542969-17.164063 47.152344-26.910156 74.46875-28.429687v58.472656.007812 26.636719c0 4.183594 3.390625 7.574219 7.574219 7.574219s7.574219-3.390625 7.574219-7.574219v-23.503906l49.035156-49.035157c15.039063 7.179688 28.507813 17.132813 39.75 29.1875l-88.785156 88.789063v-10.09375c0-4.183594-3.390625-7.574219-7.574219-7.574219s-7.574219 3.390625-7.574219 7.574219v28.375.003906 90.378907.003906 23.910156c-69.15625-3.9375-124.210937-61.4375-124.210937-131.5625 0-28.441406 8.914062-55.523438 25.777344-78.3125 2.488281-3.363281 1.78125-8.105469-1.582032-10.59375-3.359375-2.488281-8.105468-1.777344-10.59375 1.582031-18.808594 25.417969-28.75 55.613281-28.75 87.324219 0 81.019531 65.914063 146.933594 146.933594 146.933594s146.933594-65.914063 146.933594-146.933594c0-10.265625-1.0625-20.285156-3.074219-29.964844-.046875-.289062-.105469-.578125-.1875-.863281-5.03125-23.464844-15.671875-44.875-30.460937-62.734375-.296876-.46875-.644532-.917969-1.050782-1.328125-.097656-.09375-.199218-.175781-.296875-.265625-14.394531-16.894531-32.535156-30.496094-53.128906-39.515625-.464844-.265625-.953125-.480469-1.457031-.636719-17.609375-7.484375-36.96875-11.625-57.277344-11.625-33.609375 0-65.246094 11.046875-91.480469 31.945313-3.273437 2.605469-3.8125 7.371093-1.207031 10.640625 1.496094 1.878906 3.703125 2.855468 5.929688 2.855468zm192.839843 23.390626c10.21875 13.84375 17.800781 29.753906 21.984375 46.972656l-120.492187 120.496094v-68.960938zm-98.507812 209.671874v-20.78125l123.59375-123.59375c.40625 4.210938.617187 8.484376.617187 12.804688 0 70.125-55.054687 127.636719-124.210937 131.570312zm0-222.949218v-40.191406c11.726562.667968 23.046875 2.878906 33.765625 6.425781zm0 0"/><path d="m122.824219 360.613281c-2.957031-2.957031-7.753907-2.957031-10.710938 0l-37.132812 37.132813c-5.246094 5.242187-8.132813 12.21875-8.132813 19.636718 0 7.417969 2.886719 14.390626 8.132813 19.636719 5.246093 5.246094 12.21875 8.132813 19.636719 8.132813 7.417968 0 14.394531-2.886719 19.636718-8.132813l37.132813-37.132812c2.957031-2.957031 2.957031-7.753907 0-10.710938zm-19.28125 65.695313c-2.382813 2.382812-5.554688 3.695312-8.925781 3.695312-3.371094 0-6.542969-1.3125-8.925782-3.695312-4.921875-4.921875-4.921875-12.929688 0-17.851563l31.777344-31.777343 17.851562 17.851562zm0 0"/><path d="m87.859375 276.195312v-40.390624c0-4.183594-3.390625-7.574219-7.574219-7.574219h-52.515625c-15.3125 0-27.769531 12.457031-27.769531 27.769531s12.457031 27.769531 27.769531 27.769531h52.515625c4.183594 0 7.574219-3.390625 7.574219-7.574219zm-15.148437-7.574218h-44.941407c-6.960937 0-12.621093-5.660156-12.621093-12.621094s5.664062-12.621094 12.621093-12.621094h44.941407zm0 0"/><path d="m112.113281 151.386719c1.480469 1.480469 3.417969 2.21875 5.355469 2.21875s3.878906-.742188 5.355469-2.21875l28.5625-28.5625c2.960937-2.957031 2.960937-7.753907 0-10.710938l-37.128907-37.132812c-5.246093-5.246094-12.222656-8.132813-19.640624-8.132813-7.417969 0-14.390626 2.886719-19.636719 8.132813-5.246094 5.246093-8.132813 12.21875-8.132813 19.636719 0 7.417968 2.890625 14.394531 8.132813 19.636718zm-26.421875-65.695313c2.382813-2.382812 5.554688-3.695312 8.925782-3.695312 3.371093 0 6.542968 1.3125 8.925781 3.695312l31.777343 31.777344-17.851562 17.851562-31.777344-31.777343c-4.921875-4.921875-4.921875-12.929688 0-17.851563zm0 0"/><path d="m235.804688 87.859375h40.390624c4.183594 0 7.574219-3.390625 7.574219-7.574219v-52.515625c0-15.3125-12.457031-27.769531-27.769531-27.769531s-27.769531 12.457031-27.769531 27.769531v52.515625c0 4.183594 3.390625 7.574219 7.574219 7.574219zm7.574218-60.089844c0-6.960937 5.660156-12.621093 12.621094-12.621093s12.621094 5.664062 12.621094 12.621093v44.941407h-25.246094v-44.941407zm0 0"/><path d="m276.195312 424.140625h-40.390624c-4.183594 0-7.574219 3.390625-7.574219 7.574219v52.515625c0 15.3125 12.457031 27.769531 27.769531 27.769531s27.769531-12.457031 27.769531-27.769531v-52.515625c0-4.183594-3.390625-7.574219-7.574219-7.574219zm-7.574218 60.089844c0 6.960937-5.660156 12.621093-12.621094 12.621093s-12.621094-5.664062-12.621094-12.621093v-44.941407h25.246094v44.941407zm0 0"/><path d="m399.886719 360.613281c-2.957031-2.957031-7.753907-2.957031-10.710938 0l-28.5625 28.5625c-2.957031 2.957031-2.957031 7.753907 0 10.710938l37.132813 37.132812c5.242187 5.246094 12.21875 8.132813 19.636718 8.132813 7.417969 0 14.390626-2.886719 19.636719-8.132813 5.246094-5.246093 8.132813-12.21875 8.132813-19.636719 0-7.417968-2.886719-14.394531-8.132813-19.636718zm26.421875 65.695313c-2.382813 2.382812-5.554688 3.695312-8.925782 3.695312-3.371093 0-6.542968-1.3125-8.925781-3.695312l-31.777343-31.777344 17.851562-17.851562 31.777344 31.777343c4.921875 4.921875 4.921875 12.929688 0 17.851563zm0 0"/><path d="m484.230469 228.230469h-52.515625c-4.183594 0-7.574219 3.390625-7.574219 7.574219v40.390624c0 4.183594 3.390625 7.574219 7.574219 7.574219h52.515625c15.3125 0 27.769531-12.457031 27.769531-27.769531s-12.457031-27.769531-27.769531-27.769531zm0 40.390625h-44.941407v-25.246094h44.941407c6.960937 0 12.621093 5.664062 12.621093 12.625s-5.664062 12.621094-12.621093 12.621094zm0 0"/><path d="m389.175781 151.386719c1.480469 1.480469 3.417969 2.21875 5.355469 2.21875 1.941406 0 3.878906-.742188 5.355469-2.21875l37.132812-37.132813c5.246094-5.242187 8.132813-12.21875 8.132813-19.636718 0-7.417969-2.886719-14.390626-8.132813-19.636719-5.246093-5.246094-12.21875-8.132813-19.636719-8.132813-7.417968 0-14.390624 2.886719-19.636718 8.132813l-37.132813 37.132812c-2.957031 2.957031-2.957031 7.753907 0 10.710938zm19.28125-65.695313c2.382813-2.382812 5.554688-3.695312 8.925781-3.695312 3.371094 0 6.542969 1.3125 8.925782 3.695312 4.921875 4.921875 4.921875 12.929688 0 17.851563l-31.777344 31.777343-17.851562-17.851562zm0 0"/></svg>