<svg id="icons" enable-background="new 0 0 64 64" height="512" viewBox="0 0 64 64" width="512" xmlns="http://www.w3.org/2000/svg"><g><g><path d="m61 42.496h-58c-1.654 0-3-1.346-3-3v-29.997c0-1.654 1.346-3 3-3h58c1.654 0 3 1.346 3 3v29.998c0 1.653-1.346 2.999-3 2.999zm-58-33.997c-.552 0-1 .449-1 1v29.998c0 .552.448 1 1 1h58c.552 0 1-.448 1-1v-29.998c0-.551-.448-1-1-1z"/></g><g><path d="m61 46.496h-58c-1.654 0-3-1.346-3-3v-29.997c0-.552.447-1 1-1s1 .448 1 1v29.998c0 .552.448 1 1 1h58c.552 0 1-.448 1-1v-29.998c0-.552.447-1 1-1s1 .448 1 1v29.998c0 1.653-1.346 2.999-3 2.999z"/></g><g><g><path d="m11.001 23.499c-3.309 0-6-2.691-6-6s2.691-6 6-6 6 2.691 6 6-2.691 6-6 6zm0-10c-2.206 0-4 1.794-4 4s1.794 4 4 4 4-1.794 4-4-1.794-4-4-4z"/></g><g><path d="m25.002 23.499c-3.309 0-6-2.691-6-6s2.691-6 6-6 6 2.691 6 6-2.691 6-6 6zm0-10c-2.206 0-4 1.794-4 4s1.794 4 4 4 4-1.794 4-4-1.794-4-4-4z"/></g><g><path d="m39.003 23.499c-3.309 0-6-2.691-6-6s2.691-6 6-6 6 2.691 6 6-2.691 6-6 6zm0-10c-2.206 0-4 1.794-4 4s1.794 4 4 4 4-1.794 4-4-1.794-4-4-4z"/></g><g><path d="m53.004 23.499c-3.309 0-6-2.691-6-6s2.691-6 6-6 6 2.691 6 6-2.691 6-6 6zm0-10c-2.206 0-4 1.794-4 4s1.794 4 4 4 4-1.794 4-4-1.794-4-4-4z"/></g></g><g><g><path d="m11.001 37.496c-3.309 0-6-2.691-6-6s2.691-5.999 6-5.999 6 2.691 6 5.999-2.691 6-6 6zm0-9.998c-2.206 0-4 1.794-4 3.999 0 2.206 1.794 4 4 4s4-1.794 4-4c0-2.205-1.794-3.999-4-3.999z"/></g><g><path d="m25.002 37.496c-3.309 0-6-2.691-6-6s2.691-5.999 6-5.999 6 2.691 6 5.999-2.691 6-6 6zm0-9.998c-2.206 0-4 1.794-4 3.999 0 2.206 1.794 4 4 4s4-1.794 4-4c0-2.205-1.794-3.999-4-3.999z"/></g><g><path d="m39.003 37.496c-3.309 0-6-2.691-6-6s2.691-5.999 6-5.999 6 2.691 6 5.999-2.691 6-6 6zm0-9.998c-2.206 0-4 1.794-4 3.999 0 2.206 1.794 4 4 4s4-1.794 4-4c0-2.205-1.794-3.999-4-3.999z"/></g><g><path d="m53.004 37.496c-3.309 0-6-2.691-6-6s2.691-5.999 6-5.999 6 2.691 6 5.999-2.691 6-6 6zm0-9.998c-2.206 0-4 1.794-4 3.999 0 2.206 1.794 4 4 4s4-1.794 4-4c0-2.205-1.794-3.999-4-3.999z"/></g></g><g><g><path d="m51.338 55.502h-47.837c-.553 0-1-.447-1-1s.447-1 1-1h47.837c.553 0 1 .447 1 1s-.447 1-1 1z"/></g><g><path d="m51.338 52.502h-47.837c-.553 0-1-.447-1-1s.447-1 1-1h47.837c.553 0 1 .447 1 1s-.447 1-1 1z"/></g><g><path d="m3.501 55.502c-1.379 0-2.5-1.121-2.5-2.5s1.121-2.5 2.5-2.5c.553 0 1 .447 1 1s-.447 1-1 1c-.275 0-.5.225-.5.5s.225.5.5.5c.553 0 1 .447 1 1s-.447 1-1 1z"/></g><g><path d="m54.5 57.502c-2.481 0-4.5-2.019-4.5-4.5s2.019-4.5 4.5-4.5c1.579 0 9.5 1.863 9.5 4.5s-7.921 4.5-9.5 4.5zm0-7c-1.379 0-2.5 1.121-2.5 2.5s1.121 2.5 2.5 2.5c1.647 0 6.422-1.555 7.399-2.5-.977-.945-5.752-2.5-7.399-2.5z"/></g><g><path d="m47 55.502c-.553 0-1-.447-1-1v-3c0-.553.447-1 1-1s1 .447 1 1v3c0 .553-.447 1-1 1z"/></g></g></g></svg>