<svg xmlns="http://www.w3.org/2000/svg" id="Guide" height="512" viewBox="0 0 512 512" width="512"><g fill="rgb(0,0,0)"><path d="m16 125.186a6 6 0 0 0 6-6v-83.186a14.015 14.015 0 0 1 14-14h90.123a6 6 0 0 0 0-12h-90.123a26.029 26.029 0 0 0 -26 26v83.186a6 6 0 0 0 6 6z"></path><path d="m496 382.025a6 6 0 0 0 -6 6v87.975a14.015 14.015 0 0 1 -14 14h-83.558a6 6 0 0 0 0 12h83.558a26.029 26.029 0 0 0 26-26v-87.975a6 6 0 0 0 -6-6z"></path><path d="m476 10h-81.878a6 6 0 0 0 0 12h81.878a14.015 14.015 0 0 1 14 14v78.985a6 6 0 1 0 12 0v-78.985a26.029 26.029 0 0 0 -26-26z"></path><path d="m36 502h77.521a6 6 0 0 0 0-12h-77.521a14.015 14.015 0 0 1 -14-14v-77.053a6 6 0 0 0 -12 0v77.053a26.029 26.029 0 0 0 26 26z"></path><path d="m433.342 387.025-4.842-279.335a26.128 26.128 0 0 0 -26-25.53h-298.31a26.03 26.03 0 0 0 -26 26v293.806a26.02 26.02 0 0 0 25.954 26c2.248.017 225.752 1.743 313.923 1.874h.025a15.72 15.72 0 0 0 15.716-15.982l-.466-26.827zm-329.152-292.865h298.31a14.068 14.068 0 0 1 14 13.743l4.552 262.432-66.02-78.249a26 26 0 0 0 -41.617-2.858l-32.236 37.628a14 14 0 0 1 -22.681-1.98l-58.166-98.31a26 26 0 0 0 -43.031-2.552l-67.111 87.767v-203.621a14.016 14.016 0 0 1 14-14zm316.548 322.572a3.685 3.685 0 0 1 -2.647 1.108h-.006c-88.133-.131-311.6-1.856-313.895-1.874a14.016 14.016 0 0 1 -14-14v-70.428l76.643-100.238a14 14 0 0 1 23.167 1.377l58.166 98.31a26 26 0 0 0 42.122 3.676l32.236-37.627a14 14 0 0 1 22.544 1.753l.234.378 76.076 90.168.429 24.725a3.7 3.7 0 0 1 -1.069 2.672z"></path><path d="m276.752 231.582a40.264 40.264 0 1 0 -40.264-40.264 40.31 40.31 0 0 0 40.264 40.264zm0-68.528a28.264 28.264 0 1 1 -28.264 28.264 28.3 28.3 0 0 1 28.264-28.264z"></path></g></svg>