<?xml version="1.0"?>
<svg xmlns="http://www.w3.org/2000/svg" xmlns:xlink="http://www.w3.org/1999/xlink" xmlns:svgjs="http://svgjs.com/svgjs" version="1.1" width="512" height="512" x="0" y="0" viewBox="0 0 64 64" style="enable-background:new 0 0 512 512" xml:space="preserve" class=""><g><g xmlns="http://www.w3.org/2000/svg"><path d="m59.151 47.298-2.701-.638c-.501-.143-.914-.479-1.17-.917.548-.481.999-1.067 1.296-1.743h.424c1.654 0 3-1.346 3-3 0-.353-.073-.688-.185-1.003.756-.974 1.185-2.19 1.185-3.437 0-3.065-2.468-5.56-5.501-5.56h-6.998c-3.033 0-5.501 2.494-5.501 5.56 0 1.247.429 2.463 1.185 3.437-.112.315-.185.65-.185 1.003 0 1.654 1.346 3 3 3h.424c.297.677.748 1.263 1.297 1.744-.254.437-.657.77-1.127.905l-2.745.65c-1.179.279-2.166.96-2.849 1.873-.511-.684-1.192-1.238-2-1.588v-8.584c0-4.411-3.589-8-8-8s-8 3.589-8 8v8.583c-.808.351-1.489.904-2 1.588-.682-.912-1.669-1.594-2.849-1.873l-2.701-.638c-.502-.143-.914-.48-1.171-.918.548-.481.998-1.066 1.295-1.742h.424c1.654 0 3-1.346 3-3 0-.828-.338-1.579-.882-2.123 1.138-.917 1.882-2.305 1.882-3.877 0-2.757-2.243-5-5-5-1.155 0-2.207.41-3.055 1.071-.276-.042-.554-.071-.834-.071h-3.55c-3.066 0-5.561 2.494-5.561 5.56 0 1.242.43 2.452 1.189 3.425-.115.318-.189.657-.189 1.015 0 1.654 1.346 3 3 3h.424c.297.677.749 1.263 1.297 1.744-.254.436-.657.769-1.128.904l-2.745.65c-2.266.536-3.849 2.537-3.849 4.866l.002 10.836h62.001v-10.836c0-2.329-1.583-4.33-3.849-4.866zm-10.151-5.298v-2c0-.486.349-.893.81-.982 1.379.643 2.904.982 4.426.982h.764v2c0 1.654-1.346 3-3 3s-3-1.346-3-3zm8 0v-2c.552 0 1 .449 1 1s-.448 1-1 1zm-11-1c0-.551.448-1 1-1v2c-.552 0-1-.449-1-1zm1.78-3h-.78c-.539 0-1.039.154-1.476.404-.331-.553-.524-1.189-.524-1.844 0-1.963 1.57-3.56 3.501-3.56h6.998c1.931 0 3.501 1.597 3.501 3.56 0 .655-.193 1.291-.524 1.845-.437-.251-.937-.405-1.476-.405h-1-1.764c-1.309 0-2.619-.309-3.789-.895l-.211-.105h-.236c-.883 0-1.67.391-2.22 1zm4.22 9c.541 0 1.052-.108 1.54-.268.123.212.267.41.427.596-.158.947-.977 1.672-1.967 1.672-.989 0-1.807-.724-1.966-1.669.159-.186.304-.385.427-.599.488.16.999.268 1.539.268zm-25-7v2c-.552 0-1-.449-1-1s.448-1 1-1zm0 4h.424c.297.677.748 1.263 1.297 1.744-.254.437-.657.77-1.127.905l-1.594.377v-3.21c.314.112.648.184 1 .184zm8-2c0 1.654-1.346 3-3 3s-3-1.346-3-3v-2c0-.486.349-.893.81-.982 1.379.643 2.904.982 4.426.982h.764zm-4.539 4.732c.488.16.999.268 1.539.268.541 0 1.052-.108 1.54-.268.158.272.343.527.56.754l-2.1 2.1-2.098-2.097c.216-.228.401-.483.559-.757zm4.819-.989c.548-.481.999-1.067 1.296-1.743h.424c.352 0 .686-.072 1-.184v3.211l-1.55-.366c-.501-.144-.913-.48-1.17-.918zm1.72-5.743c.552 0 1 .449 1 1s-.448 1-1 1zm-5-7c3.024 0 5.526 2.251 5.935 5.164-.296-.098-.607-.164-.935-.164h-1-1.764c-1.309 0-2.619-.309-3.789-.895l-.211-.105h-.236c-.883 0-1.67.391-2.22 1h-.78c-.328 0-.639.066-.935.164.409-2.913 2.911-5.164 5.935-5.164zm-6.691 16.245 2.79-.662c.018-.005.034-.013.051-.018l3.85 3.85 3.852-3.852c.032.01.061.024.093.033l2.745.65c1.36.322 2.31 1.522 2.31 2.919v8.835h-18v-8.836c0-1.397.949-2.598 2.309-2.919zm-16.311-7.245v-2c0-.486.349-.893.81-.982 1.38.643 2.904.982 4.426.982h.764v2c0 1.654-1.346 3-3 3s-3-1.346-3-3zm8 0v-2c.552 0 1 .449 1 1s-.448 1-1 1zm-11-1c0-.551.448-1 1-1v2c-.552 0-1-.449-1-1zm1.78-3h-.78c-.536 0-1.033.153-1.469.401-.335-.553-.531-1.188-.531-1.841 0-1.963 1.598-3.56 3.561-3.56h2.863c-.269.614-.424 1.288-.424 2h2c0-1.654 1.346-3 3-3s3 1.346 3 3-1.346 3-3 3h-1.764c-1.309 0-2.619-.309-3.789-.895l-.211-.105h-.236c-.883 0-1.67.391-2.22 1zm4.22 9c.541 0 1.053-.108 1.542-.268.123.212.266.409.425.594-.157.947-.976 1.674-1.967 1.674-.989 0-1.807-.723-1.966-1.668.16-.187.304-.386.427-.6.488.16.999.268 1.539.268zm-9 5.164c0-1.397.949-2.598 2.31-2.919l2.789-.662c.07-.02.134-.049.202-.073.597 1.458 2.028 2.49 3.699 2.49 1.669 0 3.098-1.028 3.697-2.495.083.03.164.065.25.089l2.745.65c1.36.322 2.31 1.522 2.31 2.919v8.837h-18.001zm58.002 8.836h-18v-8.836c0-1.397.949-2.598 2.31-2.919l2.789-.662c.069-.02.134-.049.202-.073.597 1.458 2.028 2.49 3.699 2.49 1.668 0 3.098-1.028 3.697-2.494.083.029.163.064.248.089l2.745.65c1.36.322 2.31 1.522 2.31 2.919z" fill="#ffffff" data-original="#000000" style="" class=""/><path d="m25 25h1v1.586c0 1.331 1.083 2.414 2.414 2.414.637 0 1.259-.258 1.707-.707l3.293-3.293h21.586c1.654 0 3-1.346 3-3v-18c0-1.654-1.346-3-3-3h-30c-1.654 0-3 1.346-3 3v18c0 1.654 1.346 3 3 3zm-1-21c0-.551.448-1 1-1h30c.552 0 1 .449 1 1v18c0 .551-.448 1-1 1h-22.414l-3.88 3.879c-.235.238-.706.045-.706-.293v-3.586h-3c-.552 0-1-.449-1-1z" fill="#ffffff" data-original="#000000" style="" class=""/><path d="m39.707 8.707-1.414-1.414-8.293 8.293-2.293-2.293-1.414 1.414 3.707 3.707z" fill="#ffffff" data-original="#000000" style="" class=""/><path d="m43.707 18.707 4.293-4.293 4.293 4.293 1.414-1.414-4.293-4.293 4.293-4.293-1.414-1.414-4.293 4.293-4.293-4.293-1.414 1.414 4.293 4.293-4.293 4.293z" fill="#ffffff" data-original="#000000" style="" class=""/></g></g></svg>
