<?xml version="1.0"?>
<svg xmlns="http://www.w3.org/2000/svg" xmlns:xlink="http://www.w3.org/1999/xlink" xmlns:svgjs="http://svgjs.com/svgjs" version="1.1" width="512" height="512" x="0" y="0" viewBox="0 0 512 512" style="enable-background:new 0 0 512 512" xml:space="preserve" class=""><g><path xmlns="http://www.w3.org/2000/svg" d="m255.634 0c-55.212 0-107.833 17.371-152.172 50.234-42.709 31.655-74.036 74.783-90.75 124.848-7.772 10.214-12.398 22.945-12.398 36.74v35.608c0 70.669 27.52 137.109 77.491 187.079 49.97 49.971 116.41 77.491 187.079 77.491h26.176c19.805 0 33.386-9.287 33.386-9.287 52.777-14.741 100.391-46.917 134.068-90.601 34.786-45.124 53.173-99.088 53.173-156.06-.001-141.187-114.865-256.052-256.053-256.052zm35.426 481.994h-26.176c-62.654 0-121.558-24.399-165.861-68.702-44.305-44.303-68.703-103.207-68.703-165.862v-35.608c0-16.979 13.813-30.791 30.791-30.791h11.011v102.569c0 86.397 70.289 156.685 156.685 156.685h93.043v10.917c.001 16.979-13.812 30.792-30.79 30.792zm30.791-71.715h-78.04v-27.291h78.04zm-108.046-57.297v56.414c-57.964-6.867-104.054-53.028-110.82-111.023h56.3v-147.349h-32.132c31.301-38.157 78.458-61.006 128.481-61.006 91.552 0 166.034 74.483 166.034 166.034 0 31.292-8.79 61.791-25.418 88.199-11.645 18.493-26.759 34.429-44.392 47.01v-38.28h-138.053zm-84.526-171.952v87.336h-27.15v-87.336zm305.47 212.762c-22.145 28.726-51.103 51.81-83.673 67.104.508-3.158.782-34.111.782-34.111 28.343-16.026 52.353-38.864 69.783-66.544 19.649-31.203 30.034-67.231 30.034-104.188 0-108.097-87.943-196.04-196.04-196.04-35.063 0-69.496 9.412-99.578 27.218-26.65 15.775-49.261 37.725-65.867 63.793 0 0-32.891.1-34.765.275 15.849-30.046 38.485-56.634 65.905-76.958 39.133-29.004 85.574-44.335 134.305-44.335 124.643 0 226.046 101.404 226.046 226.046-.001 50.284-16.23 97.914-46.932 137.74z" fill="#ffffff" data-original="#000000" style="" class=""/><path xmlns="http://www.w3.org/2000/svg" d="m241.284 252.962-46.745 38.667 19.121 23.117 57.624-47.666v-120.607h-30z" fill="#ffffff" data-original="#000000" style="" class=""/></g></svg>
