<?xml version="1.0" encoding="iso-8859-1"?>
<!-- Generator: Adobe Illustrator 19.0.0, SVG Export Plug-In . SVG Version: 6.00 Build 0)  -->
<svg version="1.1" id="Capa_1" xmlns="http://www.w3.org/2000/svg" xmlns:xlink="http://www.w3.org/1999/xlink" x="0px" y="0px"
	 viewBox="0 0 512 512" style="enable-background:new 0 0 512 512;" xml:space="preserve">
<g>
	<g>
		<path d="M411.02,108.557C379.907,23.078,285.054-21.154,199.578,9.959C114.099,41.072,69.87,135.924,100.981,221.401
			c31.119,85.496,125.978,129.704,211.441,98.598C397.901,288.886,442.13,194.034,411.02,108.557z M302.16,291.805
			c-69.935,25.454-147.537-10.74-172.987-80.665c-25.453-69.933,10.734-147.534,80.665-172.987
			c69.938-25.455,147.537,10.739,172.987,80.665C408.279,188.75,372.093,266.352,302.16,291.805z"/>
	</g>
</g>
<g>
	<g>
		<path d="M321.959,192.674c-6.81-4.724-16.154-3.036-20.876,3.771c-10.227,14.737-27.076,23.535-45.072,23.535
			c-17.902,0-34.757-8.811-45.085-23.572c-4.75-6.789-14.106-8.437-20.891-3.69c-6.788,4.75-8.439,14.104-3.69,20.891
			c15.937,22.776,41.981,36.374,69.666,36.374c27.826,0,53.891-13.62,69.719-36.433
			C330.455,206.743,328.766,197.398,321.959,192.674z"/>
	</g>
</g>
<g>
	<g>
		<path d="M325.677,116.38c-22.044-31.532-62.647-44.373-98.737-31.241c-16.539,6.02-30.588,16.834-40.626,31.273
			c-4.728,6.802-3.048,16.151,3.754,20.88c6.802,4.729,16.15,3.047,20.879-3.753c6.484-9.327,15.564-16.315,26.254-20.206
			c23.342-8.501,49.614-0.175,63.886,20.238c4.749,6.79,14.1,8.446,20.89,3.699C328.767,132.522,330.423,123.17,325.677,116.38z"/>
	</g>
</g>
<g>
	<g>
		<path d="M390.442,491.865l-52.974-145.543c-2.834-7.785-11.442-11.8-19.227-8.966c-7.785,2.834-11.8,11.443-8.966,19.227
			l52.974,145.543c2.834,7.786,11.443,11.799,19.227,8.966C389.261,508.258,393.275,499.649,390.442,491.865z"/>
	</g>
</g>
<g>
</g>
<g>
</g>
<g>
</g>
<g>
</g>
<g>
</g>
<g>
</g>
<g>
</g>
<g>
</g>
<g>
</g>
<g>
</g>
<g>
</g>
<g>
</g>
<g>
</g>
<g>
</g>
<g>
</g>
</svg>
