<svg xmlns="http://www.w3.org/2000/svg" viewBox="0 0 64 64" width="512" height="512"><g id="outline"><path d="M58,8h1a3,3,0,0,0,0-6H5A3,3,0,0,0,5,8H6v9H4V15H2v6H4V19H6V40.788L2.086,49.594l1.828.812,1.859-4.182L8,46.781V51h2V46.781l2.227-.557L14,50.212v.374L4.293,60.293A1,1,0,0,0,5,62H59a1,1,0,0,0,.707-1.707L50,50.586v-.374l1.773-3.988L54,46.781V51h2V46.781l2.227-.557,1.859,4.182,1.828-.812L58,40.788V19h2v2h2V15H60v2H58Zm0-4h1a1,1,0,0,1,0,2H58ZM6,6H5A1,1,0,0,1,5,4H6ZM8,4h6V6H8ZM8,8h2v7H8Zm0,9h2v2H8ZM8,44.719l-1.4-.35L7.65,42H8ZM8,40V21h2V40Zm2,4.719V42h.35L11.4,44.369Zm2-3.931V8h2V45.288ZM56.586,60H7.414l8.293-8.293A1,1,0,0,0,16,51V4H48V51a1,1,0,0,0,.293.707ZM52,40.788l-2,4.5V8h2ZM50,6V4h6V6Zm4,9V8h2v7Zm2,2v2H54V17ZM54,44.719l-1.4-.35L53.65,42H54ZM54,40V21h2V40Zm2,4.719V42h.35L57.4,44.369Z"></path><rect x="44" y="6" width="2" height="2"></rect><rect x="40" y="6" width="2" height="2"></rect><path d="M18,51.586l-4.707,4.707A1,1,0,0,0,14,58h6V56H16.414l3.293-3.293A1,1,0,0,0,20,52V47H18Z"></path><path d="M46,47H44v5a1,1,0,0,0,.293.707L47.586,56H36v2H50a1,1,0,0,0,.707-1.707L46,51.586Z"></path></g></svg>