<?xml version="1.0" encoding="iso-8859-1"?>
<!-- Generator: Adobe Illustrator 19.0.0, SVG Export Plug-In . SVG Version: 6.00 Build 0)  -->
<svg version="1.1" id="Capa_1" xmlns="http://www.w3.org/2000/svg" xmlns:xlink="http://www.w3.org/1999/xlink" x="0px" y="0px"
	 viewBox="0 0 512 512" style="enable-background:new 0 0 512 512;" xml:space="preserve">
<g>
	<g>
		<g>
			<path d="M315.712,334.4c9.258,6.762,18.996,12.842,29.136,18.192l14.784-28.384c-8.761-4.63-17.172-9.892-25.168-15.744
				L315.712,334.4z"/>
			<path d="M400,144c-57.008,0-118.256,59.52-144,87.664C230.256,203.52,169.008,144,112,144C41.872,144,0,185.872,0,256
				s41.872,112,112,112c56.72,0,117.616-58.896,143.6-87.216c10.755,11.447,22.104,22.321,34,32.576l21.184-24
				c-11.806-10.521-23.023-21.684-33.6-33.44c26.016-29.088,80.368-80,122.912-80c53.072,0,80,26.912,80,80
				c0,37.712-13.824,62.4-41.088,73.392l11.968,29.68C490.304,343.184,512,306.576,512,256C512,185.872,470.128,144,400,144z
				 M112,336c-53.072,0-80-26.912-80-80s26.928-80,80-80c42.48,0,96.912,50.928,122.96,80C208.944,285.088,154.576,336,112,336z"/>
			<path d="M385.6,334.256l-7.2,31.184c7.08,1.665,14.327,2.524,21.6,2.56c5.344,0,10.432-0.224,15.328-0.672l-2.944-31.872
				C403.451,336.546,394.399,336.141,385.6,334.256z"/>
		</g>
	</g>
</g>
<g>
</g>
<g>
</g>
<g>
</g>
<g>
</g>
<g>
</g>
<g>
</g>
<g>
</g>
<g>
</g>
<g>
</g>
<g>
</g>
<g>
</g>
<g>
</g>
<g>
</g>
<g>
</g>
<g>
</g>
</svg>
