<svg xmlns="http://www.w3.org/2000/svg" xmlns:xlink="http://www.w3.org/1999/xlink" id="Layer_1" x="0px" y="0px" viewBox="0 0 496 496" style="enable-background:new 0 0 496 496;" xml:space="preserve">
<g>
	<g>
		<g>
			<path d="M186.6,233.864l31.192-41.592L180.28,136H91.72l-37.512,56.272L85.4,233.864C35.416,253.992,0,302.896,0,360     c0,74.992,61.008,136,136,136s136-61.008,136-136C272,302.896,236.584,253.992,186.6,233.864z M170.544,228.616     c-2.592-0.68-5.152-1.416-7.792-1.944L173.416,200H192L170.544,228.616z M171.72,152l21.336,32h-20.112l-16-32H171.72z      M132.944,152h6.112l16,32h-38.112L132.944,152z M156.184,200l-9.816,24.528C142.936,224.264,139.504,224,136,224     c-3.504,0-6.936,0.264-10.368,0.528L115.816,200H156.184z M100.28,152h14.776l-16,32H78.944L100.28,152z M80,200h18.584     l10.664,26.672c-2.64,0.528-5.208,1.264-7.792,1.944L80,200z M136,480c-66.168,0-120-53.832-120-120s53.832-120,120-120     s120,53.832,120,120S202.168,480,136,480z"></path>
			<path d="M136,256c-57.344,0-104,46.656-104,104s46.656,104,104,104s104-46.656,104-104S193.344,256,136,256z M136,448     c-48.52,0-88-39.48-88-88c0-48.52,39.48-88,88-88s88,39.48,88,88C224,408.52,184.52,448,136,448z"></path>
			<path d="M496,232c0-12.128-6.864-22.576-16.832-28c9.968-5.424,16.832-15.872,16.832-28c0-16.136-12.048-29.384-27.6-31.552     c7.024-5.88,11.6-14.592,11.6-24.448c0-16.136-12.048-29.384-27.6-31.552C459.424,82.568,464,73.856,464,64     c0-17.648-14.352-32-32-32c-6.048,0-11.648,1.784-16.48,4.712C415.752,35.16,416,33.616,416,32c0-17.648-14.352-32-32-32     s-32,14.352-32,32c0,1.616,0.248,3.16,0.48,4.712C347.648,33.784,342.048,32,336,32c-17.648,0-32,14.352-32,32     c0,9.856,4.576,18.568,11.6,24.448C300.048,90.616,288,103.864,288,120c0,9.856,4.576,18.568,11.6,24.448     C284.048,146.616,272,159.864,272,176c0,12.128,6.864,22.576,16.832,28C278.864,209.424,272,219.872,272,232     s6.864,22.576,16.832,28C278.864,265.424,272,275.872,272,288c0,16.136,12.048,29.384,27.6,31.552     c-7.024,5.88-11.6,14.592-11.6,24.448c0,16.136,12.048,29.384,27.6,31.552c-7.024,5.88-11.6,14.592-11.6,24.448     c0,17.648,14.352,32,32,32c6.048,0,11.648-1.784,16.48-4.712c-0.232,1.552-0.48,3.096-0.48,4.712c0,17.648,14.352,32,32,32     s32-14.352,32-32c0-1.616-0.248-3.16-0.48-4.712C420.352,430.216,425.952,432,432,432c17.648,0,32-14.352,32-32     c0-9.856-4.576-18.568-11.6-24.448C467.952,373.384,480,360.136,480,344c0-9.856-4.576-18.568-11.6-24.448     C483.952,317.384,496,304.136,496,288c0-12.128-6.864-22.576-16.832-28C489.136,254.576,496,244.128,496,232z M480,176     c0,8.824-7.176,16-16,16c-8.824,0-16-7.176-16-16c0-8.824,7.176-16,16-16C472.824,160,480,167.176,480,176z M464,120     c0,8.824-7.176,16-16,16c-8.824,0-16-7.176-16-16c0-8.824,7.176-16,16-16C456.824,104,464,111.176,464,120z M432,48     c8.824,0,16,7.176,16,16s-7.176,16-16,16c-8.824,0-16-7.176-16-16S423.176,48,432,48z M384,16c8.824,0,16,7.176,16,16     s-7.176,16-16,16c-8.824,0-16-7.176-16-16S375.176,16,384,16z M336,48c8.824,0,16,7.176,16,16s-7.176,16-16,16     c-8.824,0-16-7.176-16-16S327.176,48,336,48z M320,104c8.824,0,16,7.176,16,16s-7.176,16-16,16c-8.824,0-16-7.176-16-16     C304,111.176,311.176,104,320,104z M288,176c0-8.824,7.176-16,16-16c8.824,0,16,7.176,16,16c0,8.824-7.176,16-16,16     C295.176,192,288,184.824,288,176z M288,232c0-8.824,7.176-16,16-16c8.824,0,16,7.176,16,16c0,8.824-7.176,16-16,16     C295.176,248,288,240.824,288,232z M288,288c0-8.824,7.176-16,16-16c8.824,0,16,7.176,16,16c0,8.824-7.176,16-16,16     C295.176,304,288,296.824,288,288z M304,344c0-8.824,7.176-16,16-16c8.824,0,16,7.176,16,16c0,8.824-7.176,16-16,16     C311.176,360,304,352.824,304,344z M336,416c-8.824,0-16-7.176-16-16c0-8.824,7.176-16,16-16c8.824,0,16,7.176,16,16     C352,408.824,344.824,416,336,416z M384,448c-8.824,0-16-7.176-16-16c0-8.824,7.176-16,16-16c8.824,0,16,7.176,16,16     C400,440.824,392.824,448,384,448z M400,400c0,1.616,0.248,3.16,0.48,4.712C395.648,401.784,390.048,400,384,400     c-6.048,0-11.648,1.784-16.48,4.712c0.232-1.552,0.48-3.096,0.48-4.712c0-16.136-12.048-29.384-27.6-31.552     c7.024-5.88,11.6-14.592,11.6-24.448c0-16.136-12.048-29.384-27.6-31.552c7.024-5.88,11.6-14.592,11.6-24.448     c0-12.128-6.864-22.576-16.832-28c9.968-5.424,16.832-15.872,16.832-28s-6.864-22.576-16.832-28     c9.968-5.424,16.832-15.872,16.832-28c0-9.856-4.576-18.568-11.6-24.448C339.952,149.384,352,136.136,352,120     c0-9.856-4.576-18.568-11.6-24.448C355.952,93.384,368,80.136,368,64c0-1.616-0.248-3.16-0.48-4.712     C372.352,62.216,377.952,64,384,64c6.048,0,11.648-1.784,16.48-4.712C400.248,60.84,400,62.384,400,64     c0,16.136,12.048,29.384,27.6,31.552c-7.024,5.88-11.6,14.592-11.6,24.448c0,16.136,12.048,29.384,27.6,31.552     c-7.024,5.88-11.6,14.592-11.6,24.448c0,12.128,6.864,22.576,16.832,28C438.864,209.424,432,219.872,432,232     s6.864,22.576,16.832,28C438.864,265.424,432,275.872,432,288c0,9.856,4.576,18.568,11.6,24.448     C428.048,314.616,416,327.864,416,344c0,9.856,4.576,18.568,11.6,24.448C412.048,370.616,400,383.864,400,400z M432,416     c-8.824,0-16-7.176-16-16c0-8.824,7.176-16,16-16c8.824,0,16,7.176,16,16C448,408.824,440.824,416,432,416z M448,360     c-8.824,0-16-7.176-16-16c0-8.824,7.176-16,16-16c8.824,0,16,7.176,16,16C464,352.824,456.824,360,448,360z M480,288     c0,8.824-7.176,16-16,16c-8.824,0-16-7.176-16-16c0-8.824,7.176-16,16-16C472.824,272,480,279.176,480,288z M464,248     c-8.824,0-16-7.176-16-16c0-8.824,7.176-16,16-16c8.824,0,16,7.176,16,16C480,240.824,472.824,248,464,248z"></path>
		</g>
	</g>
</g>
<g>
</g>
<g>
</g>
<g>
</g>
<g>
</g>
<g>
</g>
<g>
</g>
<g>
</g>
<g>
</g>
<g>
</g>
<g>
</g>
<g>
</g>
<g>
</g>
<g>
</g>
<g>
</g>
<g>
</g>
</svg>