<?xml version="1.0" encoding="iso-8859-1"?>
<!-- Generator: Adobe Illustrator 19.0.0, SVG Export Plug-In . SVG Version: 6.00 Build 0)  -->
<svg version="1.1" id="Capa_1" xmlns="http://www.w3.org/2000/svg" xmlns:xlink="http://www.w3.org/1999/xlink" x="0px" y="0px"
	 viewBox="0 0 512 512" style="enable-background:new 0 0 512 512;" xml:space="preserve">
<g>
	<g>
		<path d="M343.701,198.9c-5.552-5.551-12.879-8.944-20.878-9.722c-0.776-8-4.169-15.325-9.722-20.878
			c-6.952-6.952-16.435-10.444-26.696-9.833c-9.815,0.584-19.215,4.9-26.469,12.154c-7.253,7.253-11.568,16.653-12.152,26.467
			c-0.61,10.264,2.882,19.744,9.833,26.696c5.551,5.55,12.875,8.943,20.877,9.723c0.78,8.001,4.174,15.327,9.724,20.877
			c6.607,6.607,15.398,9.868,24.449,9.868c10.15,0,20.627-4.103,28.714-12.188c7.253-7.253,11.569-16.653,12.153-26.468
			C354.146,215.333,350.653,205.852,343.701,198.9z M333.569,224.408c-0.293,4.925-2.541,9.724-6.331,13.514
			c-7.499,7.499-18.66,8.54-24.878,2.32c-3.259-3.259-3.994-7.262-4.037-10.036c-0.113-7.918-8.608-16.415-16.519-16.528
			c-2.783-0.042-6.785-0.776-10.045-4.037c-2.854-2.853-4.277-6.889-4.011-11.366c0.293-4.924,2.541-9.724,6.33-13.513
			c3.789-3.79,8.589-6.038,13.514-6.332c0.354-0.021,0.707-0.031,1.056-0.031c4.054,0,7.685,1.416,10.311,4.042
			c3.26,3.259,3.993,7.259,4.034,10.039c0.117,7.91,8.607,16.405,16.521,16.526c2.783,0.042,6.786,0.776,10.045,4.035
			C332.412,215.895,333.836,219.931,333.569,224.408z"/>
	</g>
</g>
<g>
	<g>
		<path d="M383.109,184.59c-1.859-1.86-4.429-2.93-7.069-2.93c-2.63,0-5.21,1.07-7.07,2.93c-1.86,1.86-2.93,4.44-2.93,7.07
			s1.069,5.21,2.93,7.07c1.86,1.86,4.44,2.93,7.07,2.93c2.64,0,5.21-1.07,7.069-2.93c1.87-1.87,2.931-4.44,2.931-7.07
			S384.979,186.45,383.109,184.59z"/>
	</g>
</g>
<g>
	<g>
		<path d="M327.429,128.9c-1.861-1.86-4.439-2.93-7.07-2.93c-2.63,0-5.21,1.07-7.069,2.93c-1.86,1.86-2.931,4.44-2.931,7.07
			c0,2.64,1.07,5.21,2.931,7.07c1.859,1.87,4.439,2.93,7.069,2.93c2.631,0,5.21-1.06,7.07-2.93c1.86-1.86,2.93-4.43,2.93-7.07
			C330.359,133.34,329.29,130.76,327.429,128.9z"/>
	</g>
</g>
<g>
	<g>
		<path d="M458.528,53.472C424.047,18.99,378.201,0,329.437,0s-94.61,18.99-129.092,53.472L53.472,200.344
			C18.99,234.826,0,280.672,0,329.437c0,48.764,18.99,94.61,53.472,129.092C87.953,493.01,133.799,512,182.563,512
			c48.764,0,94.61-18.99,129.092-53.472l146.873-146.873C493.01,277.174,512,231.328,512,182.564
			C512,133.799,493.01,87.954,458.528,53.472z M239.597,106.731c-1.111-0.764-2.145-1.621-3.068-2.545
			c-8.363-8.364-8.445-21.89-0.184-30.151c4.098-4.098,9.49-6.143,14.906-6.143c5.502,0,11.029,2.112,15.243,6.326
			c0.924,0.924,1.781,1.958,2.551,3.075c2.963,4.301,8.739,5.6,13.259,2.974c42.776-24.851,97.12-17.744,132.148,17.283
			c35.026,35.029,42.134,89.371,17.283,132.149c-2.626,4.518-1.329,10.296,2.975,13.259c1.114,0.768,2.147,1.625,3.072,2.549
			c4.062,4.062,6.312,9.444,6.335,15.154c0.023,5.679-2.161,11.004-6.152,14.995c-8.262,8.262-21.788,8.179-30.15-0.184
			c-0.924-0.923-1.78-1.956-2.547-3.07c-2.964-4.304-8.742-5.603-13.261-2.977c-42.781,24.853-97.122,17.744-132.148-17.282
			c-35.028-35.028-42.135-89.371-17.283-132.15C245.202,115.473,243.903,109.693,239.597,106.731z M67.614,444.385
			C36.909,413.682,20,372.858,20,329.436c0-36.512,11.959-71.185,34.021-99.551c-1.908,45.341,4.434,91.141,18.703,134.013
			c15.134,45.473,38.404,86.739,69.317,123.031C114.124,479.797,88.522,465.293,67.614,444.385z M182.563,492
			c-3.046,0-6.079-0.092-9.097-0.258c-74.1-76.133-109.531-179.81-97.57-285.536l73.703-73.703
			c-2.178,46.15,4.2,92.813,18.793,136.444c18.371,54.926,48.599,103.688,89.843,144.932c11.628,11.629,24.106,22.533,37.184,32.552
			C264.963,475.836,225.008,492,182.563,492z M309.713,432.186c-13.161-9.925-25.695-20.809-37.336-32.45
			c-17.934-17.934-33.677-37.45-47.118-58.203c45.382,18.949,94.131,28.707,143.521,28.707c0.968,0,1.938-0.02,2.907-0.028
			L309.713,432.186z M444.386,297.514l-51.926,51.924c-64.081,4.277-127.841-8.851-184.668-38.056
			c-31.378-60.975-44.362-130.342-36.403-200.67l43.098-43.098c1.715-1.715,3.467-3.38,5.244-5.009
			c-13.212,15.799-12.664,39.319,1.615,54.646c-24.592,49.368-15.095,109.569,24.37,149.035
			c24.907,24.907,58.065,37.878,91.556,37.876c19.575-0.001,39.267-4.433,57.479-13.507c15.327,14.279,38.85,14.826,54.65,1.609
			C447.771,294.043,446.104,295.796,444.386,297.514z M452.964,232.441c24.59-49.366,15.093-109.567-24.37-149.033
			c-39.469-39.466-99.664-48.966-149.034-24.37c-13.521-12.595-33.418-14.503-48.768-5.708C258.989,31.714,293.311,20,329.437,20
			c43.422,0,84.245,16.91,114.949,47.614C475.091,98.318,492,139.142,492,182.564c0,36.094-11.693,70.386-33.272,98.569
			c3.54-6.183,5.419-13.217,5.389-20.555C464.073,250.056,460.124,240.121,452.964,232.441z"/>
	</g>
</g>
<g>
	<g>
		<path d="M145.742,276.89l-0.107-0.321c-1.747-5.24-7.409-8.072-12.649-6.325c-5.239,1.747-8.071,7.41-6.325,12.649l0.158,0.469
			c1.421,4.154,5.304,6.767,9.461,6.767c1.073,0,2.165-0.174,3.237-0.541C144.742,287.801,147.529,282.116,145.742,276.89z"/>
	</g>
</g>
<g>
	<g>
		<path d="M196.478,377.604c-14.582-20.795-27.188-43.152-37.469-66.447c-2.229-5.052-8.133-7.34-13.186-5.111
			c-5.053,2.229-7.342,8.133-5.111,13.186c10.807,24.488,24.061,47.991,39.392,69.854c1.945,2.775,5.046,4.26,8.196,4.26
			c1.982,0,3.985-0.588,5.732-1.813C198.554,388.363,199.649,382.126,196.478,377.604z"/>
	</g>
</g>
<g>
	<g>
		<path d="M307.819,204.36c-1.859-1.86-4.439-2.93-7.069-2.93s-5.21,1.07-7.07,2.93c-1.86,1.86-2.93,4.44-2.93,7.07
			c0,2.64,1.069,5.21,2.93,7.07c1.86,1.86,4.44,2.93,7.07,2.93s5.21-1.07,7.069-2.93c1.86-1.86,2.931-4.44,2.931-7.07
			S309.68,206.22,307.819,204.36z"/>
	</g>
</g>
<g>
</g>
<g>
</g>
<g>
</g>
<g>
</g>
<g>
</g>
<g>
</g>
<g>
</g>
<g>
</g>
<g>
</g>
<g>
</g>
<g>
</g>
<g>
</g>
<g>
</g>
<g>
</g>
<g>
</g>
</svg>
