<svg xmlns="http://www.w3.org/2000/svg" xmlns:xlink="http://www.w3.org/1999/xlink" xmlns:svgjs="http://svgjs.com/svgjs" width="512" height="512" x="0" y="0" viewBox="0 0 512 512" style="enable-background:new 0 0 512 512" xml:space="preserve"><g><g xmlns="http://www.w3.org/2000/svg" id="Outline"><path d="m456 48h-64v16h64a24.027 24.027 0 0 1 24 24v264a24.027 24.027 0 0 1 -24 24h-8v16h8a40.045 40.045 0 0 0 40-40v-264a40.045 40.045 0 0 0 -40-40z" fill="#ffffff" data-original="#000000" style=""></path><path d="m392 224h64v16h-64z" fill="#ffffff" data-original="#000000" style=""></path><path d="m392 192h64v16h-64z" fill="#ffffff" data-original="#000000" style=""></path><path d="m392 256h64v16h-64z" fill="#ffffff" data-original="#000000" style=""></path><path d="m392 288h64v16h-64z" fill="#ffffff" data-original="#000000" style=""></path><path d="m392 320h64v16h-64z" fill="#ffffff" data-original="#000000" style=""></path><path d="m400 168h8a8 8 0 0 0 8-8v-16h16a8 8 0 0 0 8-8v-8a8 8 0 0 0 -8-8h-16v-16a8 8 0 0 0 -8-8h-8a8 8 0 0 0 -8 8v56a8 8 0 0 0 8 8z" fill="#ffffff" data-original="#000000" style=""></path><path d="m32 352v-232h-16v232a40.045 40.045 0 0 0 40 40h64v-16h-64a24.028 24.028 0 0 1 -24-24z" fill="#ffffff" data-original="#000000" style=""></path><path d="m16 88v16h16v-16a24.027 24.027 0 0 1 24-24h64v-16h-64a40.045 40.045 0 0 0 -40 40z" fill="#ffffff" data-original="#000000" style=""></path><path d="m112 96h-8a8 8 0 0 0 -8 8v16h-16a8 8 0 0 0 -8 8v8a8 8 0 0 0 8 8h16v16a8 8 0 0 0 8 8h8a8 8 0 0 0 8-8v-56a8 8 0 0 0 -8-8z" fill="#ffffff" data-original="#000000" style=""></path><path d="m88 224h32v16h-32z" fill="#ffffff" data-original="#000000" style=""></path><path d="m56 224h16v16h-16z" fill="#ffffff" data-original="#000000" style=""></path><path d="m88 192h32v16h-32z" fill="#ffffff" data-original="#000000" style=""></path><path d="m56 192h16v16h-16z" fill="#ffffff" data-original="#000000" style=""></path><path d="m88 256h32v16h-32z" fill="#ffffff" data-original="#000000" style=""></path><path d="m56 256h16v16h-16z" fill="#ffffff" data-original="#000000" style=""></path><path d="m88 288h32v16h-32z" fill="#ffffff" data-original="#000000" style=""></path><path d="m56 288h16v16h-16z" fill="#ffffff" data-original="#000000" style=""></path><path d="m88 320h32v16h-32z" fill="#ffffff" data-original="#000000" style=""></path><path d="m56 320h16v16h-16z" fill="#ffffff" data-original="#000000" style=""></path><path d="m152.757 382a24.034 24.034 0 0 1 -.757-6v-320a24.027 24.027 0 0 1 24-24h160a24.027 24.027 0 0 1 24 24v280h16v-280a40.045 40.045 0 0 0 -40-40h-160a40.045 40.045 0 0 0 -40 40v320a39.972 39.972 0 0 0 40 40h32v-16h-32a23.98 23.98 0 0 1 -23.243-18z" fill="#ffffff" data-original="#000000" style=""></path><path d="m272 56h-32a8 8 0 0 0 -8 8v24h-24a8 8 0 0 0 -8 8v32a8 8 0 0 0 8 8h24v24a8 8 0 0 0 8 8h32a8 8 0 0 0 8-8v-24h24a8 8 0 0 0 8-8v-32a8 8 0 0 0 -8-8h-24v-24a8 8 0 0 0 -8-8zm24 48v16h-24a8 8 0 0 0 -8 8v24h-16v-24a8 8 0 0 0 -8-8h-24v-16h24a8 8 0 0 0 8-8v-24h16v24a8 8 0 0 0 8 8z" fill="#ffffff" data-original="#000000" style=""></path><path d="m256 184h48v16h-48z" fill="#ffffff" data-original="#000000" style=""></path><path d="m208 184h32v16h-32z" fill="#ffffff" data-original="#000000" style=""></path><path d="m208 248h128v16h-128z" fill="#ffffff" data-original="#000000" style=""></path><path d="m176 248h16v16h-16z" fill="#ffffff" data-original="#000000" style=""></path><path d="m208 216h128v16h-128z" fill="#ffffff" data-original="#000000" style=""></path><path d="m176 216h16v16h-16z" fill="#ffffff" data-original="#000000" style=""></path><path d="m208 280h64v16h-64z" fill="#ffffff" data-original="#000000" style=""></path><path d="m176 280h16v16h-16z" fill="#ffffff" data-original="#000000" style=""></path><path d="m208 312h64v16h-64z" fill="#ffffff" data-original="#000000" style=""></path><path d="m176 312h16v16h-16z" fill="#ffffff" data-original="#000000" style=""></path><path d="m208 344h64v16h-64z" fill="#ffffff" data-original="#000000" style=""></path><path d="m176 344h16v16h-16z" fill="#ffffff" data-original="#000000" style=""></path><path d="m409.63 351.18a24.007 24.007 0 0 0 -17.636 6.032 24.041 24.041 0 0 0 -32 0 24.09 24.09 0 0 0 -24-4.724v-48.488a24 24 0 0 0 -48 0v106.374l-17.584-20.516a24.672 24.672 0 0 0 -38 31.469l57.343 71.673a8 8 0 0 0 6.247 3h128a8 8 0 0 0 8-8v-112c0-13.085-9.826-23.987-22.37-24.82zm6.37 128.82h-116.155l-54.934-68.668a8.7 8.7 0 0 1 -.985-9.3 8.672 8.672 0 0 1 14.341-1.766l31.659 36.935a8 8 0 0 0 14.074-5.201v-128a8 8 0 0 1 16 0v88h16v-17.009a8 8 0 0 1 16 0v17.009h16v-17.008a8 8 0 0 1 16 0v17.008h16v-17.008a8.13 8.13 0 0 1 8.571-7.847c4.1.271 7.429 4.244 7.429 8.855z" fill="#ffffff" data-original="#000000" style=""></path></g></g></svg>