<?xml version="1.0" encoding="UTF-8"?>
<svg version="1.1" xmlns="http://www.w3.org/2000/svg" width="256" height="256">
<path d="M0 0 C2.18508577 0.98224502 4.37003869 1.96478139 6.5546875 2.94799805 C8.39623659 3.77568437 10.23868961 4.60136241 12.08203125 5.42504883 C19.91817947 8.93336696 19.91817947 8.93336696 23.63671875 10.78125 C24.58160156 11.2453125 25.52648437 11.709375 26.5 12.1875 C27.2940625 12.59355469 28.088125 12.99960937 28.90625 13.41796875 C31.02570749 14.22272173 31.02570749 14.22272173 33.15625 13.23828125 C35.12959204 11.99891909 35.12959204 11.99891909 37 10 C43.77325355 10.4147389 50.31611159 12.12454665 56.90234375 13.6875 C58.02065079 13.95006592 59.13895782 14.21263184 60.29115295 14.4831543 C62.64062682 15.03588713 64.98961379 15.59069324 67.33813477 16.14746094 C70.94866973 17.00264564 74.56110803 17.84941209 78.17382812 18.6953125 C80.45845106 19.23387585 82.74296044 19.77292117 85.02734375 20.3125 C86.11264877 20.56668701 87.1979538 20.82087402 88.31614685 21.08276367 C89.31130814 21.31970947 90.30646942 21.55665527 91.33178711 21.80078125 C92.65127602 22.11269409 92.65127602 22.11269409 93.99742126 22.4309082 C96 23 96 23 97 24 C96.60559863 31.493626 94.56965293 37.10090439 89.5625 42.75 C82.3875 49.05 82.3875 49.05 78 51 C78.89332031 51.2475 79.78664062 51.495 80.70703125 51.75 C84.19074008 53.0724043 86.00632111 54.45083161 88.6875 57 C89.53441406 57.79277344 90.38132813 58.58554688 91.25390625 59.40234375 C92.16011719 60.25957031 93.06632813 61.11679688 94 62 C96.03354509 63.86316171 98.07957508 65.71240035 100.125 67.5625 C101.75022984 69.04141413 103.37531544 70.52048687 105 72 C104.6596875 72.88558594 104.6596875 72.88558594 104.3125 73.7890625 C103.73922586 76.03796437 103.73922586 76.03796437 105.1875 77.7109375 C105.785625 78.26007813 106.38375 78.80921875 107 79.375 C107.64195312 79.97699219 108.28390625 80.57898438 108.9453125 81.19921875 C111.44369002 83.38886141 113.99514641 85.50295023 116.6171875 87.54296875 C118 89 118 89 118.42578125 90.890625 C119.25628176 93.9414432 121.05979147 95.38352988 123.3125 97.5625 C124.09238281 98.32691406 124.87226563 99.09132813 125.67578125 99.87890625 C127.70866024 101.73412186 129.76468706 103.3989635 132 105 C130.20893191 109.01199253 127.6085779 111.79747482 124.65625 115 C123.05415503 116.93460525 122.07729615 118.74683158 121 121 C121.33620361 121.46148437 121.67240723 121.92296875 122.01879883 122.3984375 C128.4239829 131.20108056 134.76634911 140.03547972 140.90356445 149.02734375 C144.2223968 153.88528385 147.59840445 158.69970948 151 163.5 C152.4936413 165.61434364 153.98634006 167.72934826 155.47851562 169.84472656 C156.51745059 171.31643995 157.55788225 172.78709761 158.59960938 174.25683594 C160.1568322 176.4580017 161.70444899 178.66562877 163.25 180.875 C163.96736328 181.88336914 163.96736328 181.88336914 164.69921875 182.91210938 C168 187.65759458 168 187.65759458 168 191 C164.535 192.98 164.535 192.98 161 195 C153.08387045 184.33745816 145.41348076 173.51755519 137.82470703 162.62011719 C126.06784483 145.69923563 126.06784483 145.69923563 114 129 C110.19364503 132.20760251 106.45436433 135.40746109 103 139 C99.07850812 135.63587752 95.2420684 132.31441317 91.75 128.5 C90.38875 127.2625 90.38875 127.2625 89 126 C85.60090387 126.26726764 83.72318011 127.82712567 81.25 130.0625 C80.32960937 130.88427734 80.32960937 130.88427734 79.390625 131.72265625 C78.93171875 132.14417969 78.4728125 132.56570312 78 133 C77.60208252 132.60095459 77.20416504 132.20190918 76.79418945 131.79077148 C74.98187746 129.9905679 73.14785978 128.21418694 71.3125 126.4375 C70.68666016 125.80908203 70.06082031 125.18066406 69.41601562 124.53320312 C67.66946113 122.85980274 66.02293899 121.32783347 64 120 C61.32398466 120.23134289 61.32398466 120.23134289 59 121 C57.04296875 119.59375 57.04296875 119.59375 55.1875 117.5 C52.52868505 114.62086893 49.87745259 111.95772311 46.875 109.4375 C43.15870446 106.25000541 40.09420658 102.79040306 37 99 C39.475 96.03 39.475 96.03 42 93 C41.45859375 92.78601563 40.9171875 92.57203125 40.359375 92.3515625 C37.1607203 90.51922057 34.79035516 88.00203394 32.25 85.375 C31.74339844 84.859375 31.23679687 84.34375 30.71484375 83.8125 C29.47196098 82.54616661 28.23534724 81.2736856 27 80 C28.49076434 76.7173068 30.38620321 74.06922559 32.625 71.25 C33.25664063 70.45078125 33.88828125 69.6515625 34.5390625 68.828125 C35.02117187 68.22484375 35.50328125 67.6215625 36 67 C35.45948502 66.82744186 34.91897003 66.65488373 34.36207581 66.47709656 C28.66294762 64.62236066 23.12455287 62.50219885 17.58984375 60.20703125 C16.73693253 59.85613937 15.8840213 59.5052475 15.00526428 59.14372253 C12.31484205 58.03612316 9.62615206 56.9243885 6.9375 55.8125 C5.09972291 55.055063 3.26183329 54.29789899 1.42382812 53.54101562 C-3.0520873 51.697161 -7.52645543 49.8495989 -12 48 C-12.99 53.28 -13.98 58.56 -15 64 C-13.55625 64.4125 -12.1125 64.825 -10.625 65.25 C-5.27630154 66.84696854 -0.14488628 68.84352639 5 71 C4.34 73.97 3.68 76.94 3 80 C-3.37839707 78.12243426 -9.7023241 76.13308377 -16 74 C-17.32 79.94 -18.64 85.88 -20 92 C-17.03 92.66 -14.06 93.32 -11 94 C-8.15234375 95.0703125 -8.15234375 95.0703125 -5.9375 96.125 C-5.18339844 96.47820312 -4.42929688 96.83140625 -3.65234375 97.1953125 C-3.10707031 97.46085937 -2.56179687 97.72640625 -2 98 C-2.99 100.64 -3.98 103.28 -5 106 C-10.94935584 104.7915371 -16.36444167 103.25422333 -22 101 C-22.99 105.29 -23.98 109.58 -25 114 C-23.02 114.33 -21.04 114.66 -19 115 C-16.85279789 115.79671124 -14.72642789 116.65188125 -12.625 117.5625 C-11.56539063 118.01753906 -10.50578125 118.47257812 -9.4140625 118.94140625 C-8.61742188 119.29074219 -7.82078125 119.64007813 -7 120 C-7.99 122.64 -8.98 125.28 -10 128 C-16.19255192 126.72217183 -22.03022961 125.08468172 -28 123 C-28 125.97 -28 128.94 -28 132 C-27.16791016 132.37584229 -26.33582031 132.75168457 -25.47851562 133.13891602 C-8.03499329 141.02498082 9.36563573 148.99127316 26.67773438 157.16235352 C27.319758 157.46494583 27.96178162 157.76753815 28.6232605 158.07929993 C30.34657449 158.89183613 32.06907285 159.70610161 33.79150391 160.52050781 C34.85030762 161.00874023 35.90911133 161.49697266 37 162 C38.08289307 162.58974609 39.16578613 163.17949219 40.28149414 163.78710938 C44.60575345 165.19758277 46.97358963 164.71345139 51.33586121 163.89935303 C56.84585366 162.98317741 62.3733992 162.18450438 67.17474365 165.50317383 C72.39162166 170.82453564 75.9701982 177.34659845 79.6875 183.75 C80.91266905 185.73189831 82.14531061 187.70919606 83.38525391 189.68188477 C85.83784182 193.6013954 88.25107105 197.54097922 90.63525391 201.50244141 C93.57304235 206.35206908 96.66139204 211.06813785 99.88671875 215.73046875 C100.32338364 216.36383148 100.76004852 216.99719421 101.20994568 217.64974976 C102.81589059 219.97376434 104.42649137 222.29447233 106.04257202 224.6114502 C107.10045691 226.13754331 108.14065501 227.67585313 109.1796875 229.21484375 C110.04182861 230.46962524 110.04182861 230.46962524 110.92138672 231.74975586 C112 234 112 234 111.82861328 236.18969727 C110.57682046 238.92453632 108.63849181 239.71293082 106 241 C105.34 241 104.68 241 104 241 C102.7056427 239.3968811 102.7056427 239.3968811 101.22192383 237.11962891 C100.66406693 236.27099274 100.10621002 235.42235657 99.53144836 234.54800415 C98.92939072 233.61692841 98.32733307 232.68585266 97.70703125 231.7265625 C97.08277756 230.77365326 96.45852386 229.82074402 95.81535339 228.83895874 C93.80782345 225.77188042 91.80985898 222.69870953 89.8125 219.625 C87.83118193 216.58821794 85.84789105 213.55273983 83.86320496 210.51815796 C82.6275268 208.62747335 81.39407914 206.73532835 80.1632843 204.84146118 C76.66158225 199.46845709 73.05227388 194.20228853 69.28666687 189.01010132 C68 187 68 187 68 185 C63.7493468 185.67190345 59.49930277 186.34751055 55.24975586 187.02636719 C53.8078556 187.25619569 52.36580119 187.48505949 50.92358398 187.71289062 C50.22628174 187.82310547 49.52897949 187.93332031 48.81054688 188.046875 C48.12151276 188.15571014 47.43247864 188.26454529 46.7225647 188.37667847 C44.68278389 188.70727019 42.64817571 189.06191938 40.61279297 189.41845703 C37 190 37 190 34.31298828 190.14013672 C30.18978853 190.4863596 28.5280352 191.40171659 25.74829102 194.55126953 C23.1928224 198.0209669 20.9785914 201.69083646 18.75 205.375 C17.92612775 206.69139503 17.09952712 208.00608627 16.27026367 209.3190918 C14.61224313 211.95110293 12.96819362 214.59100863 11.33544922 217.23876953 C8.08833557 222.49109483 4.69934374 227.64962845 1.3125 232.8125 C0.26591152 234.42251738 -0.77977872 236.03311932 -1.82421875 237.64453125 C-2.54222656 238.75183594 -3.26023437 239.85914063 -4 241 C-6.9719385 239.87548273 -9.33440687 238.77706209 -12 237 C-11.38608142 232.75549393 -8.9468259 229.55031572 -6.625 226.0625 C-6.15964844 225.35319336 -5.69429688 224.64388672 -5.21484375 223.91308594 C-4.12899961 222.25901984 -3.04056476 220.6066529 -1.95019531 218.95556641 C1.61661645 213.54998012 5.1627325 208.13080792 8.71221924 202.71383667 C9.98562228 200.7719257 11.26090538 198.83126141 12.53662109 196.89086914 C13.336924 195.67204429 14.13721738 194.45321317 14.9375 193.234375 C15.64777344 192.15381836 16.35804687 191.07326172 17.08984375 189.95996094 C19.03059026 187.10140042 19.03059026 187.10140042 20.29760742 184.20922852 C22.34684797 181.54988853 23.9569692 181.1783639 27.21736145 180.67118835 C28.24865425 180.54584465 28.24865425 180.54584465 29.30078125 180.41796875 C30.01477585 180.31406326 30.72877045 180.21015778 31.46440125 180.10310364 C33.74472896 179.77697364 36.02795045 179.48242815 38.3125 179.1875 C39.83816823 178.97135152 41.36356432 178.75327282 42.88867188 178.53320312 C48.9429309 177.68210844 54.86477312 176.86025217 61 177 C60.67 176.34 60.34 175.68 60 175 C58.9584375 175.15339844 57.916875 175.30679688 56.84375 175.46484375 C44.94936252 176.89021002 37.4277423 174.50899593 27 169 C25.55241023 168.27117006 24.10264918 167.5466386 22.65087891 166.82617188 C20.39831334 165.70723592 18.14767601 164.58545355 15.90371704 163.44934082 C8.23645093 159.5699427 0.43081709 156.01762779 -7.40625 152.49707031 C-9.60333594 151.50973548 -11.79812925 150.51748022 -13.9921875 149.5234375 C-17.32681207 148.01270876 -20.66290265 146.50526062 -24 145 C-26.58735811 147.48671365 -28.78571666 149.93080673 -30.77734375 152.9140625 C-31.28386475 153.66550537 -31.79038574 154.41694824 -32.31225586 155.19116211 C-32.84858643 155.99432861 -33.38491699 156.79749512 -33.9375 157.625 C-38.33813921 164.13844434 -42.8098898 170.58322249 -47.4375 176.9375 C-53.23626185 184.90882248 -58.90289072 192.96664293 -64.54296875 201.05078125 C-67.96990088 205.96262025 -71.41894008 210.85862518 -74.875 215.75 C-75.39328369 216.48355713 -75.91156738 217.21711426 -76.44555664 217.97290039 C-77.63004039 219.64883404 -78.81496504 221.32445606 -80 223 C-84.765625 222.1640625 -84.765625 222.1640625 -86.875 220.6875 C-88 219 -88 219 -87.71411133 217.11401367 C-86.96587634 214.89898231 -86.0649658 213.37921513 -84.69921875 211.48828125 C-84.22299072 210.8219165 -83.7467627 210.15555176 -83.25610352 209.46899414 C-82.73846436 208.75735107 -82.2208252 208.04570801 -81.6875 207.3125 C-80.58574251 205.77618148 -79.48418546 204.23971921 -78.3828125 202.703125 C-77.53638184 201.5284668 -77.53638184 201.5284668 -76.67285156 200.33007812 C-74.60474222 197.44945414 -72.56476139 194.54973472 -70.52685547 191.64770508 C-66.45857523 185.85457711 -62.35182696 180.09209731 -58.19042969 174.36547852 C-52.97072151 167.18172598 -47.8377873 159.9463782 -42.8125 152.625 C-41.98310913 151.42061279 -41.98310913 151.42061279 -41.13696289 150.19189453 C-40.62383545 149.44020996 -40.11070801 148.68852539 -39.58203125 147.9140625 C-39.13061768 147.2535791 -38.6792041 146.5930957 -38.21411133 145.91259766 C-36.99710055 143.99543248 -35.97831436 142.04776718 -35 140 C-36.65 139.01 -38.3 138.02 -40 137 C-38.66039268 128.32531621 -36.91408735 119.79381834 -34.9609375 111.23828125 C-34.52431896 109.29564347 -34.08771197 107.35300301 -33.65177345 105.41021252 C-32.58987223 100.68092359 -31.52171803 95.95308135 -30.44433594 91.22729492 C-29.83542301 88.55496861 -29.23168614 85.8815703 -28.63345337 83.20683289 C-28.07370882 80.7052429 -27.50652635 78.20530174 -26.93075562 75.70735168 C-25.6565036 69.97498721 -24.79226522 64.74714189 -24.99649048 58.87568665 C-25.00144957 56.22526635 -24.3448727 54.01490642 -23.46875 51.52734375 C-23.15292969 50.60888672 -22.83710937 49.69042969 -22.51171875 48.74414062 C-22.17785156 47.81794922 -21.84398438 46.89175781 -21.5 45.9375 C-21.16613281 44.97650391 -20.83226563 44.01550781 -20.48828125 43.02539062 C-19.67111798 40.67896466 -18.84160182 38.3377473 -18 36 C-12.97680404 36.68830965 -8.955895 38.18503185 -4.3671875 40.2578125 C-1.75568111 41.07660163 -0.53481316 40.92281217 2 40 C2.31900893 36.91153919 2.31900893 36.91153919 0.1875 34.8125 C-4.98330789 28.16431843 -5.57941331 21.73097179 -5.4375 13.5 C-4.78494049 8.27952395 -2.71939745 4.41673949 0 0 Z M4 13 C3.44571774 19.65138716 4.30544909 24.37727106 8 30 C8.66 30.66 9.32 31.32 10 32 C14.08522462 31.79573877 16.38550633 29.11354014 19.25 26.4375 C20.14203125 25.61121094 21.0340625 24.78492188 21.953125 23.93359375 C22.96632813 22.97646484 22.96632813 22.97646484 24 22 C22.05304181 20.05304181 20.84364041 19.35223828 18.375 18.2734375 C17.66859375 17.9640625 16.9621875 17.6546875 16.234375 17.3359375 C15.49703125 17.01882812 14.7596875 16.70171875 14 16.375 C13.26265625 16.05015625 12.5253125 15.7253125 11.765625 15.390625 C8.022219 13.62896485 8.022219 13.62896485 4 13 Z M35.5 23.9375 C31.90287018 27.27806597 28.25738477 30.47865491 24.4375 33.5625 C19.4906241 37.56510044 14.71480811 41.72756895 10 46 C12.90514432 47.93676288 15.52528203 49.1013807 18.76171875 50.3828125 C19.87998047 50.82753906 20.99824219 51.27226563 22.15039062 51.73046875 C23.31763672 52.19066406 24.48488281 52.65085938 25.6875 53.125 C26.86634766 53.59292969 28.04519531 54.06085938 29.25976562 54.54296875 C32.17194991 55.69841029 35.08581702 56.84960876 38 58 C40.64 52.39 43.28 46.78 46 41 C48.02125 41.165 50.0425 41.33 52.125 41.5 C67.41240722 43.39299817 67.41240722 43.39299817 81 38 C82.83274566 36.07326739 84.39873909 34.13501455 86 32 C85.2154811 29.85908674 85.2154811 29.85908674 83.30545044 29.37985229 C82.57059418 29.20664459 81.83573792 29.03343689 81.07861328 28.85498047 C80.24750031 28.65492401 79.41638733 28.45486755 78.56008911 28.24874878 C77.65596283 28.04033356 76.75183655 27.83191833 75.8203125 27.6171875 C74.89660858 27.39805695 73.97290466 27.17892639 73.02120972 26.95315552 C71.06340099 26.49040824 69.10463599 26.03169137 67.14501953 25.57666016 C64.14266629 24.87910452 61.14345218 24.16918256 58.14453125 23.45703125 C56.244964 23.00968427 54.34522964 22.56304613 52.4453125 22.1171875 C51.54523468 21.90472382 50.64515686 21.69226013 49.71780396 21.47335815 C48.88038666 21.27960602 48.04296936 21.08585388 47.18017578 20.88623047 C46.44372833 20.71461395 45.70728088 20.54299744 44.94851685 20.36618042 C40.18138744 19.47030443 38.89732425 20.71114499 35.5 23.9375 Z M63 51 C56.04036164 58.45396781 49.3626426 66.02464799 43 74 C42.25621094 74.92941406 41.51242188 75.85882813 40.74609375 76.81640625 C40.16988281 77.53699219 39.59367187 78.25757812 39 79 C41.97 81.64 44.94 84.28 48 87 C57.68820642 78.92649465 66.23618553 69.93768252 74 60 C72.73548068 58.68141572 71.46314525 57.37032369 70.1875 56.0625 C69.47980469 55.33160156 68.77210938 54.60070312 68.04296875 53.84765625 C66.04463837 51.79165354 66.04463837 51.79165354 63 51 Z M82 65 C80.6607572 66.43381348 79.35479893 67.89873585 78.0625 69.375 C74.7714895 73.07934887 71.40294133 76.64568267 67.875 80.125 C63.70124301 84.25353052 59.79387975 88.52303728 56 93 C54.85441781 94.33354912 53.70859743 95.66689367 52.5625 97 C51.716875 97.99 50.87125 98.98 50 100 C51.26257233 101.17560179 52.53537084 102.34022865 53.8125 103.5 C54.52019531 104.1496875 55.22789062 104.799375 55.95703125 105.46875 C57.97457093 107.29987759 57.97457093 107.29987759 61 107 C62.99266512 105.18703503 62.99266512 105.18703503 65 102.75 C65.79535156 101.83605469 66.59070313 100.92210937 67.41015625 99.98046875 C68.26480469 98.99691406 69.11945313 98.01335937 70 97 C71.80645203 95.0147434 73.61751085 93.03519978 75.4375 91.0625 C76.35970176 90.05889391 77.28157536 89.05498618 78.203125 88.05078125 C78.66138672 87.55143066 79.11964844 87.05208008 79.59179688 86.53759766 C83.40802191 82.37071394 87.20286044 78.18426659 91 74 C89.10185196 69.70853487 86.68699085 67.8240781 83 65 C82.67 65 82.34 65 82 65 Z M94.59887695 84.15820312 C94.06738037 84.69380859 93.53588379 85.22941406 92.98828125 85.78125 C92.39853516 86.37220459 91.80878906 86.96315918 91.20117188 87.57202148 C90.57791016 88.20825439 89.95464844 88.8444873 89.3125 89.5 C88.67763672 90.14203369 88.04277344 90.78406738 87.38867188 91.44555664 C83.08572864 95.82312697 78.9356096 100.28776344 75 105 C73.85524883 106.33426255 72.70945184 107.6676287 71.5625 109 C70.716875 109.99 69.87125 110.98 69 112 C71.97 114.64 74.94 117.28 78 120 C81.56001656 116.48496559 85.00318521 112.88407882 88.375 109.1875 C88.85324219 108.66414063 89.33148438 108.14078125 89.82421875 107.6015625 C97.20340816 99.54405827 97.20340816 99.54405827 104 91 C102.55922954 87.63820226 100.75249979 85.40843732 98 83 C95.95394431 82.78762405 95.95394431 82.78762405 94.59887695 84.15820312 Z M108.1796875 100.6875 C103.25148881 105.63240444 98.51382644 110.67339452 94 116 C95.38188453 119.21043882 96.92421903 121.04936365 99.625 123.25 C100.25664062 123.77078125 100.88828125 124.2915625 101.5390625 124.828125 C102.02117187 125.21484375 102.50328125 125.6015625 103 126 C103.40089844 125.53851563 103.80179688 125.07703125 104.21484375 124.6015625 C109.08442142 119.01424662 114.03081023 113.49878595 119 108 C117.10185196 103.70853487 114.68699085 101.8240781 111 99 C109.70852975 98.88669213 109.70852975 98.88669213 108.1796875 100.6875 Z " fill="#F44235" transform="translate(88,12)"/>
<path d="M0 0 C2.46746055 1.18938902 4.02485282 2.8725212 5.84765625 4.890625 C4.31121773 8.57132387 2.0661468 10.87837704 -0.77734375 13.640625 C-1.59460938 14.43984375 -2.411875 15.2390625 -3.25390625 16.0625 C-3.88039062 16.66578125 -4.506875 17.2690625 -5.15234375 17.890625 C-10.3324473 15.38100962 -10.3324473 15.38100962 -12.15234375 12.890625 C-11.80611125 8.90029547 -9.56830335 6.84230911 -6.83984375 4.078125 C-5.67001953 2.86189453 -5.67001953 2.86189453 -4.4765625 1.62109375 C-2.15234375 -0.109375 -2.15234375 -0.109375 0 0 Z " fill="#F43E32" transform="translate(250.15234375,36.109375)"/>
<path d="M0 0 C2.99698087 1.14981859 4.73404002 2.90800815 7.01171875 5.15625 C7.82253906 5.93613281 8.63335937 6.71601562 9.46875 7.51953125 C11.19921875 9.84375 11.19921875 9.84375 11.08984375 11.99609375 C9.90045473 14.4635543 8.21732255 16.02094657 6.19921875 17.84375 C2.51851988 16.30731148 0.21146671 14.06224055 -2.55078125 11.21875 C-3.35 10.40148438 -4.14921875 9.58421875 -4.97265625 8.7421875 C-5.5759375 8.11570312 -6.17921875 7.48921875 -6.80078125 6.84375 C-3.34458079 -0.29020224 -3.34458079 -0.29020224 0 0 Z " fill="#F44632" transform="translate(217.80078125,36.15625)"/>
<path d="M0 0 C4.18423892 3.50897269 8.19588166 7.08060535 12 11 C10.34807388 15.20490286 8.98771331 15.80982935 5 19 C1.37 15.37 -2.26 11.74 -6 8 C-4.21844267 4.43688534 -2.83236991 2.64354525 0 0 Z " fill="#F44632" transform="translate(244,62)"/>
<path d="M0 0 C2.31 1.98 4.62 3.96 7 6 C5.07859132 9.84281736 3.4073184 11.80431927 0.375 14.75 C-0.44226563 15.54921875 -1.25953125 16.3484375 -2.1015625 17.171875 C-2.72804687 17.77515625 -3.35453125 18.3784375 -4 19 C-6.31 17.02 -8.62 15.04 -11 13 C-9.07859132 9.15718264 -7.4073184 7.19568073 -4.375 4.25 C-3.55773437 3.45078125 -2.74046875 2.6515625 -1.8984375 1.828125 C-0.95871094 0.92320313 -0.95871094 0.92320313 0 0 Z " fill="#F44331" transform="translate(222,62)"/>
<path d="M0 0 C3.68069887 1.53643852 5.98775204 3.78150945 8.75 6.625 C9.54921875 7.44226562 10.3484375 8.25953125 11.171875 9.1015625 C11.77515625 9.72804688 12.3784375 10.35453125 13 11 C11.64062915 13.8605891 10.35479531 15.85927699 8 18 C4.31930113 16.46356148 2.01224796 14.21849055 -0.75 11.375 C-1.54921875 10.55773438 -2.3484375 9.74046875 -3.171875 8.8984375 C-3.77515625 8.27195312 -4.3784375 7.64546875 -5 7 C-3.64062915 4.1394109 -2.35479531 2.14072301 0 0 Z " fill="#F44236" transform="translate(37,30)"/>
<path d="M0 0 C2.8605891 1.35937085 4.85927699 2.64520469 7 5 C5.46356148 8.68069887 3.21849055 10.98775204 0.375 13.75 C-0.44226562 14.54921875 -1.25953125 15.3484375 -2.1015625 16.171875 C-2.72804688 16.77515625 -3.35453125 17.3784375 -4 18 C-6.8605891 16.64062915 -8.85927699 15.35479531 -11 13 C-9.46356148 9.31930113 -7.21849055 7.01224796 -4.375 4.25 C-3.55773437 3.45078125 -2.74046875 2.6515625 -1.8984375 1.828125 C-0.95871094 0.92320313 -0.95871094 0.92320313 0 0 Z " fill="#F44336" transform="translate(16,30)"/>
<path d="M0 0 C2.8605891 1.35937085 4.85927699 2.64520469 7 5 C5.46356148 8.68069887 3.21849055 10.98775204 0.375 13.75 C-0.44226562 14.54921875 -1.25953125 15.3484375 -2.1015625 16.171875 C-2.72804688 16.77515625 -3.35453125 17.3784375 -4 18 C-6.8605891 16.64062915 -8.85927699 15.35479531 -11 13 C-9.46356148 9.31930113 -7.21849055 7.01224796 -4.375 4.25 C-3.55773438 3.45078125 -2.74046875 2.6515625 -1.8984375 1.828125 C-0.95871094 0.92320313 -0.95871094 0.92320313 0 0 Z " fill="#F44236" transform="translate(43,3)"/>
<path d="M0 0 C3.68069887 1.53643852 5.98775204 3.78150945 8.75 6.625 C9.54921875 7.44226563 10.3484375 8.25953125 11.171875 9.1015625 C11.77515625 9.72804688 12.3784375 10.35453125 13 11 C11.64062915 13.8605891 10.35479531 15.85927699 8 18 C4.31930113 16.46356148 2.01224796 14.21849055 -0.75 11.375 C-1.54921875 10.55773438 -2.3484375 9.74046875 -3.171875 8.8984375 C-3.77515625 8.27195312 -4.3784375 7.64546875 -5 7 C-3.64062915 4.1394109 -2.35479531 2.14072301 0 0 Z " fill="#F34236" transform="translate(10,3)"/>
<path d="M0 0 C2.97 0 5.94 0 9 0 C9 2.97 9 5.94 9 9 C6.03 9 3.06 9 0 9 C0 6.03 0 3.06 0 0 Z " fill="#F44236" transform="translate(229,54)"/>
<path d="M0 0 C2.97 0 5.94 0 9 0 C9 2.97 9 5.94 9 9 C6.03 9 3.06 9 0 9 C0 6.03 0 3.06 0 0 Z " fill="#F34335" transform="translate(23,21)"/>
</svg>
