<svg height="512pt" viewBox="0 -68 512 512" width="512pt" xmlns="http://www.w3.org/2000/svg"><path d="m26.285156 213.398438c-9.679687-9.679688-26.285156-2.796876-26.285156 10.894531v137.082031c0 8.503906 6.890625 15.402344 15.402344 15.402344h137.089844c13.648437 0 20.601562-16.578125 10.882812-26.296875zm4.515625 132.574218v-84.5l84.503907 84.5zm0 0"/><path d="m485.714844 213.398438-137.089844 137.082031c-9.722656 9.722656-2.753906 26.296875 10.882812 26.296875h137.089844c8.511719 0 15.402344-6.898438 15.402344-15.402344v-137.082031c0-13.691407-16.605469-20.574219-26.285156-10.894531zm-4.515625 132.574218h-84.503907l84.503907-84.5zm0 0"/><path d="m148.980469 247.746094h214.039062c26.785157 0 48.574219-21.789063 48.574219-48.566406v-150.613282c0-26.777344-21.789062-48.566406-48.574219-48.566406h-214.039062c-26.785157 0-48.574219 21.789062-48.574219 48.566406v150.613282c0 26.777343 21.789062 48.566406 48.574219 48.566406zm-17.773438-199.179688c0-9.796875 7.96875-17.765625 17.773438-17.765625h214.039062c9.804688 0 17.773438 7.96875 17.773438 17.765625v150.613282c0 9.796874-7.96875 17.761718-17.773438 17.761718h-214.039062c-9.804688 0-17.773438-7.964844-17.773438-17.761718zm0 0"/><path d="m161.117188 164.691406c1.554687 14.128906 19.664062 18.71875 27.835937 7.289063l17.804687-24.867188 17.804688 24.878907c8.199219 11.441406 26.289062 6.75 27.832031-7.300782l8.421875-77.089844c2.210938-20.21875-28.414062-23.605468-30.628906-3.335937l-4.035156 37.015625-6.867188-9.601562c-6.160156-8.585938-18.910156-8.566407-25.054687 0l-6.859375 9.601562-4.042969-37.015625c-2.210937-20.222656-32.835937-16.929687-30.621094 3.335937zm0 0"/><path d="m295.191406 183.050781h29.507813c30.109375 0 43.421875-34.480469 28.8125-56.257812 14.488281-21.589844 1.46875-56.265625-28.8125-56.265625h-29.507813c-8.511718 0-15.402344 6.898437-15.402344 15.402344v81.71875c0 8.511718 6.890626 15.402343 15.402344 15.402343zm29.507813-30.804687h-14.105469v-10.050782h14.105469c5.398437 0 5.285156 10.050782 0 10.050782zm-14.105469-50.914063h14.105469c5.40625 0 5.273437 10.058594 0 10.058594h-14.105469zm0 0"/></svg>